<svg enable-background="new 0 0 69 66" viewBox="0 0 69 66" xmlns="http://www.w3.org/2000/svg"><g opacity=".1"><path d="m69 54v-45c0-3.6-3-6.6-6.6-6.6h-10.1l.6 2.4h9.5c2.3 0 4.2 1.9 4.2 4.2v45c0 2.3-1.9 4.2-4.2 4.2h-22.3l-1.6 2.4h23.9c3.6-.1 6.6-3 6.6-6.6z"/><path d="m64.2 53.1v-10.2l-12.8-12.8c-1.2-1.2-2.4 0-2.4 0s-2.9 2.7-6.7 6.4l-1.2 2.5 5 3.2-7.1 7 5 3-2.3 3.5h19.8c2.8 0 2.7-2.6 2.7-2.6z"/><path d="m13.8 11 19.8-4.1c.5.9.9 1.8 1.1 2.8 1.2 5.7-2.5 11.3-8.2 12.5s-11.3-2.5-12.5-8.2c-.3-1-.3-2-.2-3zm-1.7 40.2 8.5-15s.5-1.3 1.9-.4l7.4 4.9-6.1 9.3-11.1 2.3s-1.2.2-.6-1.1z" fill="none"/><path d="m.1 16.2 8.9 43.2c.6 3.1 3.3 5.3 6.5 5.3.4 0 .9 0 1.3-.1l17.5-3.6 1.4-2.8-19.3 4c-.3.1-.6.1-.9.1-1.9 0-3.7-1.4-4.1-3.3l-8.9-43.3c-.5-2.3 1-4.5 3.2-4.9l33.3-6.9.6-2.6-34.3 7.1c-3.6.7-5.9 4.2-5.2 7.8z"/><path d="m12.7 52.3 11.1-2.3 6.1-9.3-7.4-4.9c-1.4-.9-1.9.4-1.9.4l-8.5 15c-.6 1.3.6 1.1.6 1.1z"/><path d="m26.4 22.2c5.7-1.2 9.4-6.8 8.2-12.5-.2-1-.6-2-1.1-2.8l-19.7 4.1c-.1 1-.1 2 .1 3 1.2 5.8 6.8 9.4 12.5 8.2z"/><path d="m20.9 58.2s7.9-1.6 16.5-3.4l.7-1.5-5.5-3.8 6.9-5.5-5.8-4.5c-5.4 7.7-11.5 16.5-12.3 17.3-1.3 1.5-.5 1.4-.5 1.4z"/></g></svg>