<svg enable-background="new 0 0 150 150" viewBox="0 0 150 150" xmlns="http://www.w3.org/2000/svg">
  <g fill="#fff">
    <path
      d="m27 78c-1.7 0-3-1.3-3-3 0-14.1 5.5-27.2 15.5-36.7 9.4-9.1 22.4-14.3 35.5-14.3 1.7 0 3 1.3 3 3s-1.3 3-3 3c-11.6 0-23 4.6-31.4 12.6-8.8 8.4-13.6 19.9-13.6 32.4 0 1.7-1.3 3-3 3z"
      opacity=".5" />
    <path
      d="m75 63c6.6 0 12 5.4 12 12s-5.4 12-12 12-12-5.4-12-12 5.4-12 12-12m0-6c-9.9 0-18 8.1-18 18s8.1 18 18 18 18-8.1 18-18-8.1-18-18-18z" />
    <path
      d="m75 6c38 0 69 31 69 69s-31 69-69 69-69-31-69-69 31-69 69-69m0-6c-41.4 0-75 33.6-75 75s33.6 75 75 75 75-33.6 75-75-33.6-75-75-75z" />
  </g>
</svg>