<svg t="1675408867774" class="icon" viewBox="0 0 1024 1024" version="1.1"
  xmlns="http://www.w3.org/2000/svg" p-id="1466" width="200" height="200">
  <path
    d="M981.333333 917.333333a21.333333 21.333333 0 0 1-21.333333 21.333334H64a21.333333 21.333333 0 0 1 0-42.666667h896a21.333333 21.333333 0 0 1 21.333333 21.333333zM405.333333 170.666667h554.666667a21.333333 21.333333 0 0 0 0-42.666667H405.333333a21.333333 21.333333 0 0 0 0 42.666667z m554.666667 341.333333H64a21.333333 21.333333 0 0 0 0 42.666667h896a21.333333 21.333333 0 0 0 0-42.666667zM56.873333 252.893333a26.573333 26.573333 0 0 0 27.48-1.56l117.333334-80a26.666667 26.666667 0 0 0 0-44.066666l-117.333334-80A26.666667 26.666667 0 0 0 42.666667 69.333333v160a26.6 26.6 0 0 0 14.206666 23.56z"
    fill="#5C5C66" p-id="1467"></path>
</svg>