<svg viewBox="0 0 14 14" xmlns="http://www.w3.org/2000/svg" xmlns:xlink="http://www.w3.org/1999/xlink" preserveAspectRatio="xMidYMid" fill="#555"><g>
</g><g transform="rotate(0 7 7)">
  <rect x="6" y="0" rx="1" ry="1" width="2" height="4">
    <animate attributeName="opacity" values="1;0" times="0;1" dur="1s" begin="-0.875s" repeatCount="indefinite"></animate>
  </rect>
</g><g transform="rotate(45 7 7)">
  <rect x="6" y="0" rx="1" ry="1" width="2" height="4">
    <animate attributeName="opacity" values="1;0" times="0;1" dur="1s" begin="-0.75s" repeatCount="indefinite"></animate>
  </rect>
</g><g transform="rotate(90 7 7)">
  <rect x="6" y="0" rx="1" ry="1" width="2" height="4">
    <animate attributeName="opacity" values="1;0" times="0;1" dur="1s" begin="-0.625s" repeatCount="indefinite"></animate>
  </rect>
</g><g transform="rotate(135 7 7)">
  <rect x="6" y="0" rx="1" ry="1" width="2" height="4">
    <animate attributeName="opacity" values="1;0" times="0;1" dur="1s" begin="-0.5s" repeatCount="indefinite"></animate>
  </rect>
</g><g transform="rotate(180 7 7)">
  <rect x="6" y="0" rx="1" ry="1" width="2" height="4">
    <animate attributeName="opacity" values="1;0" times="0;1" dur="1s" begin="-0.375s" repeatCount="indefinite"></animate>
  </rect>
</g><g transform="rotate(225 7 7)">
  <rect x="6" y="0" rx="1" ry="1" width="2" height="4">
    <animate attributeName="opacity" values="1;0" times="0;1" dur="1s" begin="-0.25s" repeatCount="indefinite"></animate>
  </rect>
</g><g transform="rotate(270 7 7)">
  <rect x="6" y="0" rx="1" ry="1" width="2" height="4">
    <animate attributeName="opacity" values="1;0" times="0;1" dur="1s" begin="-0.125s" repeatCount="indefinite"></animate>
  </rect>
</g><g transform="rotate(315 7 7)">
  <rect x="6" y="0" rx="1" ry="1" width="2" height="4">
    <animate attributeName="opacity" values="1;0" times="0;1" dur="1s" begin="0s" repeatCount="indefinite"></animate>
  </rect>
</g></svg>