<svg viewBox="0 0 32 32" xmlns="http://www.w3.org/2000/svg" xmlns:xlink="http://www.w3.org/1999/xlink" preserveAspectRatio="xMidYMid" fill="#bbb"><g transform="rotate(0 16 16)">
  <rect x="14" y="0" rx="2" ry="2" width="4" height="10">
    <animate attributeName="opacity" values="1;0" times="0;1" dur="1s" begin="-0.875s" repeatCount="indefinite"></animate>
  </rect>
</g><g transform="rotate(45 16 16)">
  <rect x="14" y="0" rx="2" ry="2" width="4" height="10">
    <animate attributeName="opacity" values="1;0" times="0;1" dur="1s" begin="-0.75s" repeatCount="indefinite"></animate>
  </rect>
</g><g transform="rotate(90 16 16)">
  <rect x="14" y="0" rx="2" ry="2" width="4" height="10">
    <animate attributeName="opacity" values="1;0" times="0;1" dur="1s" begin="-0.625s" repeatCount="indefinite"></animate>
  </rect>
</g><g transform="rotate(135 16 16)">
  <rect x="14" y="0" rx="2" ry="2" width="4" height="10">
    <animate attributeName="opacity" values="1;0" times="0;1" dur="1s" begin="-0.5s" repeatCount="indefinite"></animate>
  </rect>
</g><g transform="rotate(180 16 16)">
  <rect x="14" y="0" rx="2" ry="2" width="4" height="10">
    <animate attributeName="opacity" values="1;0" times="0;1" dur="1s" begin="-0.375s" repeatCount="indefinite"></animate>
  </rect>
</g><g transform="rotate(225 16 16)">
  <rect x="14" y="0" rx="2" ry="2" width="4" height="10">
    <animate attributeName="opacity" values="1;0" times="0;1" dur="1s" begin="-0.25s" repeatCount="indefinite"></animate>
  </rect>
</g><g transform="rotate(270 16 16)">
  <rect x="14" y="0" rx="2" ry="2" width="4" height="10">
    <animate attributeName="opacity" values="1;0" times="0;1" dur="1s" begin="-0.125s" repeatCount="indefinite"></animate>
  </rect>
</g><g transform="rotate(315 16 16)">
  <rect x="14" y="0" rx="2" ry="2" width="4" height="10">
    <animate attributeName="opacity" values="1;0" times="0;1" dur="1s" begin="0s" repeatCount="indefinite"></animate>
  </rect>
</g></svg>