<svg enable-background="new 0 0 36 34" viewBox="0 0 36 34" xmlns="http://www.w3.org/2000/svg"><g opacity=".1"><path d="m36 27.9v-23.4c0-1.9-1.5-3.4-3.4-3.4h-5.3l.3 1.3h4.9c1.2 0 2.2 1 2.2 2.2v23.4c0 1.2-1 2.2-2.2 2.2h-11.6l-.8 1.3h12.5c1.9-.1 3.4-1.7 3.4-3.6z"/><path d="m33.5 27.5v-5.3l-6.7-6.7c-.6-.6-1.2 0-1.2 0s-1.5 1.4-3.5 3.3l-.6 1.3 2.6 1.7-3.7 3.6 2.6 1.6-1.2 1.8h10.3c1.5.1 1.4-1.3 1.4-1.3z"/><path d="m7.2 5.5 10.3-2.1c.2.5.5.9.6 1.5.6 3-1.3 5.9-4.3 6.5s-5.9-1.3-6.5-4.3c-.2-.5-.2-1.1-.1-1.6zm-.9 21 4.4-7.8s.3-.7 1-.2l3.9 2.5-3.2 4.8-5.8 1.2c0 .1-.6.2-.3-.5z" fill="none"/><path d="m.1 8.2 4.7 22.6c.3 1.6 1.7 2.7 3.4 2.7.2 0 .5 0 .7-.1l9.1-1.9.7-1.4-10.2 2.1c-.1 0-.3 0-.4 0-1 0-1.9-.7-2.1-1.7l-4.7-22.5c-.2-1.2.5-2.3 1.7-2.6l17.4-3.6.3-1.4-18 3.7c-1.8.5-3 2.3-2.6 4.1z"/><path d="m6.6 27.1 5.8-1.2 3.2-4.8-3.9-2.5c-.7-.5-1 .2-1 .2l-4.4 7.8c-.3.6.3.5.3.5z"/><path d="m13.8 11.4c3-.6 4.9-3.5 4.3-6.5-.1-.5-.3-1-.6-1.5l-10.3 2.1c0 .5 0 1 .1 1.6.6 3 3.5 4.9 6.5 4.3z"/><path d="m10.9 30.2s4.1-.8 8.6-1.8l.4-.8-2.9-2 3.6-2.9-3-2.4c-2.8 4-6 8.6-6.4 9.1-.7.8-.3.8-.3.8z"/></g></svg>