<svg enable-background="new 0 0 100 100" viewBox="0 0 100 100" xmlns="http://www.w3.org/2000/svg"><path clip-rule="evenodd" d="m35.7 35.4 56-12.7v36.3c-2.9-2.9-7.1-4.8-11.7-4.8-8.7 0-15.8 6.4-15.8 14.4 0 7.9 7.1 14.4 15.8 14.4s15.8-6.4 15.8-14.4c0-.8 0-48.5 0-48.5s0-8.9 0-9c-.6-5.2-5.1-9.8-10.5-9.8-.4 0-.9 0-1.3.1-.4-.2-44 9.1-44 9.1-.2 0-.3.1-.4.2-4.6 1-7.8 5.2-7.8 10.2v.4.3 53.3c-2.9-3-7.1-4.9-11.8-4.9-8.7 0-15.8 6.4-15.8 14.4 0 7.9 7.1 14.4 15.8 14.4s15.8-6.4 15.8-14.4m-15.8 10.4c-6.5 0-11.8-4.7-11.8-10.5s5.3-10.5 11.8-10.5 11.8 4.7 11.8 10.5-5.2 10.5-11.8 10.5zm15.7-63.4v-9.9c0-.1 0 .1 0 0 0-3.6 2.5-7 6.1-7.4l42.8-8.9h.6c3.3 0 6.1 2.4 6.5 5.6v7.8zm44.3 47.6c-6.5 0-11.8-4.7-11.8-10.5s5.3-10.5 11.8-10.5 11.8 4.7 11.8 10.5-5.3 10.5-11.8 10.5z" fill="#fff" fill-rule="evenodd"/></svg>