<svg enable-background="new 0 0 40 40" viewBox="0 0 40 40"
  xmlns="http://www.w3.org/2000/svg"
  xmlns:xlink="http://www.w3.org/1999/xlink">
  <!-- <clipPath id="a">
    <path d="m20 0c11.046 0 20 8.954 20 20s-8.954 20-20 20-20-8.954-20-20
  8.954-20 20-20" />
  </clipPath> -->
  <clipPath id="b">
    <path
      d="m29.861 20.981c-.066-1.847-.77-4.459-3.747-6.416-.969-.637-2.17-.97-3.397-.998l-.346-1.321c-.313-1.195.118-1.7.203-1.785.073-.071.158-.141.259-.208.964-.65 2.238.354 2.284.392.393.389 1.023.387 1.413-.007.392-.397.392-1.04 0-1.436-.457-.462-2.75-2.029-4.811-.639-1.09.735-1.43 1.67-1.522 2.328-.035.301-.043.824.146 1.545l.357 1.361c-.666.17-1.306.434-1.885.793-1.889 1.171-2.837 3.147-2.599 5.424.24 2.307 1.932 3.982 4.031 3.982 2.175 0 3.948-1.747 4.033-3.926-.003-.155-.013-.302-.027-.433l-.092-.541-.902-3.455c.646.088 1.257.298 1.762.63 4.271 2.808 2.486 7.269 2.41 7.454l-.004.01c-1.165 2.827-3.7 4.515-6.956 4.631-2.124.075-4.158-.727-5.728-2.26-1.652-1.613-2.599-3.872-2.599-6.198 0-3.506 2.18-6.69 5.424-7.921.519-.197.782-.783.587-1.308s-.774-.791-1.293-.594c-1.956.742-3.628 2.051-4.837 3.784-1.237 1.774-1.89 3.862-1.89 6.039 0 2.874 1.171 5.666 3.212 7.66 1.88 1.836 4.299 2.835 6.846 2.835.116 0 .232-.002.348-.006 2.047-.073 3.865-.645 5.402-1.702 1.474-1.012 2.627-2.457 3.336-4.177.053-.133.651-1.619.582-3.537m-9.61.981c-1.246 0-1.931-1.121-2.039-2.163-.199-1.906.789-2.944 1.651-3.479.411-.254.87-.442 1.349-.564l.859 3.28.058.219c.081.363.187 1.107-.126 1.692-.354.607-1.007 1.015-1.752 1.015" />
  </clipPath>
  <!-- <path clip-path="url(#a)" d="m-1.333-1.333h42.667v42.667h-42.667z" fill="#d33a31" /> -->
  <path clip-path="url(#b)" d="m8.8 6.667h22.4v25.067h-22.4z" fill="currentColor" />
</svg>