<svg enable-background="new 0 0 24 24" viewBox="0 0 24 24" xmlns="http://www.w3.org/2000/svg"><path d="m17.5 7c.1 0 .2.1.3.1l2.8 2.8.1.1c.1.2.1.5-.1.6l-.1.1c-.2.1-.5.1-.6-.1l-2-2v8.6l2-2c.2-.2.5-.2.7 0s.2.5 0 .7l-2.8 2.8c-.1.1-.2.1-.3.1h-.1c-.1 0-.2-.1-.3-.1l-2.8-2.7c-.1-.2-.1-.5.1-.6l.1-.1c.2-.1.5-.1.6.1l2 2v-8.7l-2 2c-.2.2-.5.2-.7 0s-.2-.5 0-.7l2.8-2.8c0-.1.1-.2.3-.2zm-6 11c.3 0 .5.2.5.5s-.2.5-.5.5h-7c-.3 0-.5-.2-.5-.5s.2-.5.5-.5zm0-7c.3 0 .5.2.5.5s-.2.5-.5.5h-7c-.3 0-.5-.2-.5-.5s.2-.5.5-.5zm8-7c.3 0 .5.2.5.5s-.2.5-.5.5h-15c-.3 0-.5-.2-.5-.5s.2-.5.5-.5z" transform=""/></svg>