<svg enable-background="new 0 0 90 90" viewBox="0 0 90 90" xmlns="http://www.w3.org/2000/svg">
  <path
    d="m88 90c-.9 0-1.7-.6-1.9-1.5-2.1-8.5-13.7-20.6-28.7-25.2-1.1-.2-1.5-1.1-1.5-1.4-.1-.3-.2-1.2.6-2 6-6.6 10.5-17.6 10.5-25.6 0-11.8-9.9-21.3-22-21.3s-22 9.6-22 21.3c0 8.1 4.5 19 10.5 25.5l.1.1c.8.8.7 1.7.6 2l-.3 1.1-1.2.3c-15.1 4.6-26.7 16.6-28.8 25.1-.3 1.1-1.3 1.7-2.4 1.4-1-.3-1.7-1.3-1.4-2.4 2.3-9.2 13.5-21.4 28.8-27-5.8-7.3-9.8-17.9-9.8-26.2 0-13.9 11.6-25.2 25.9-25.2s25.9 11.3 25.9 25.3c0 8.3-4 18.9-9.8 26.2 15.3 5.5 26.6 17.8 28.8 27 .3 1.1-.4 2.1-1.4 2.4-.1.1-.3.1-.5.1z"
    fill="#fff" />
</svg>