<svg enable-background="new 0 0 150 150" viewBox="0 0 150 150" xmlns="http://www.w3.org/2000/svg"><path d="m147.6 149c-1.1 0-2.1-.7-2.3-1.8-3.6-14.6-23.4-35.3-49.1-43.2-1.4-.3-1.9-1.3-2-1.8-.2-.5-.3-1.6.8-2.5 0 0 .1-.1.1-.1 10.3-11.1 18-29.9 18-43.8 0-20.3-17.1-36.9-38-36.9-21 0-38 16.5-38 36.9 0 13.8 7.7 32.6 18 43.8l.2.2c1 1 .9 2 .7 2.6-.1.4-.6 1.4-1.9 1.7-25.6 7.8-45.5 28.5-49.1 43.1-.3 1.3-1.6 2.1-2.9 1.8s-2.1-1.6-1.8-2.9c3.9-15.6 23.2-36.4 49.2-45.5-10.3-12.4-17.4-30.7-17.4-44.9 0-23 19.3-41.7 42.9-41.7s42.9 18.7 42.9 41.7c0 14.2-7.1 32.4-17.1 44.6 11.5 4.1 22.7 10.9 31.8 19.4 9 8.5 15.4 18 17.4 26.2.3 1.3-.5 2.6-1.8 2.9-.2.2-.4.2-.6.2z" fill="#fff"/></svg>